<?xml version="1.0" encoding="UTF-8"?>
<svg width="39px" height="48px" viewBox="0 0 39 48" version="1.1" xmlns="http://www.w3.org/2000/svg" xmlns:xlink="http://www.w3.org/1999/xlink">
    <title>noun_Address_2538258</title>
    <g id="Start-here" stroke="none" stroke-width="1" fill="none" fill-rule="evenodd">
        <g id="account-view-light-my-info" transform="translate(-662.000000, -121.000000)" fill="#000000" fill-rule="nonzero">
            <g id="noun_Address_2538258" transform="translate(662.000000, 121.000000)">
                <path d="M7.648344,0.0494505 C3.560436,0.0494505 0.230769,3.3791175 0.230769,7.4670255 C0.230769,10.6648245 5.109885,17.6538285 7.648344,20.967012 C10.186803,17.6538285 15.065919,10.6648245 15.065919,7.4670255 C15.065919,3.3791175 11.736252,0.0494505 7.648344,0.0494505 Z M7.648344,11.5879005 C5.373621,11.5879005 3.527469,9.7417485 3.527469,7.4670255 C3.527469,5.1923025 5.373621,3.3461505 7.648344,3.3461505 C9.923067,3.3461505 11.769219,5.1923025 11.769219,7.4670255 C11.769219,9.7417485 9.923067,11.5879005 7.648344,11.5879005 Z" id="Shape"></path>
                <path d="M0.230769,47.0274255 L15.065919,47.0274255 L15.065919,39.6098505 C15.065919,39.1483125 15.428556,38.7856755 15.890094,38.7856755 L22.483494,38.7856755 C22.945032,38.7856755 23.307669,39.1483125 23.307669,39.6098505 L23.307669,47.0274255 L38.142819,47.0274255 L38.142819,30.5439255 L0.230769,30.5439255 L0.230769,47.0274255 Z" id="Path"></path>
                <polygon id="Path" points="37.25271 28.8955755 19.186794 11.5879005 1.120878 28.8955755"></polygon>
            </g>
        </g>
    </g>
</svg>