<?xml version="1.0" encoding="UTF-8"?>
<svg width="31px" height="23px" viewBox="0 0 31 23" version="1.1" xmlns="http://www.w3.org/2000/svg" xmlns:xlink="http://www.w3.org/1999/xlink">
    <title>plane</title>
    <g id="Start-here" stroke="none" stroke-width="1" fill="none" fill-rule="evenodd">
        <g id="yonda_account_view_v2" transform="translate(-999.000000, -856.000000)" fill="#000000" fill-rule="nonzero">
            <g id="travel-preferences" transform="translate(750.000000, 831.000000)">
                <g id="plane" transform="translate(249.093053, 25.190793)">
                    <path d="M28.3044632,0.391143384 C27.6734947,-0.022225037 26.8950737,-0.130309247 26.2032632,0.174974963 L6.51153684,8.85177496 L3.11547368,6.45244865 C3.11547368,6.45244865 2.7812,6.30642759 2.28086316,6.52689075 C1.78052632,6.74771181 7.12319093e-13,7.53221707 7.12319093e-13,7.53221707 L5.15117895,13.135775 C5.15189474,13.1364908 5.15296842,13.1372065 5.15332632,13.1382802 L5.17193684,13.1583223 L5.17229474,13.1583223 C5.85050526,13.893796 6.87551579,14.1768908 7.75951579,13.7875013 L15.0297895,10.5839855 L13.4854737,21.4496697 C13.4854737,21.4496697 14.8486947,20.8491223 15.6306947,20.5044697 C16.4134105,20.1598171 16.5662316,19.5499644 16.5662316,19.5499644 L21.3215789,7.81065917 L28.2268,4.76819602 C29.3695579,4.26463812 29.8430526,2.82804865 29.2843789,1.5596697 C29.2113684,1.39432233 29.1240421,1.2400697 29.0256211,1.09798549" id="Path"></path>
                    <path d="M16.3404,3.94825917 L9.47204211,1.17994338 C9.47204211,1.17994338 9.13776842,1.03428023 8.63743158,1.25474338 C8.13709474,1.47520654 6.35656842,2.25935391 6.35656842,2.25935391 L11.5016632,6.08023812 L16.3404,3.94825917 Z" id="Path"></path>
                </g>
            </g>
        </g>
    </g>
</svg>