<?xml version="1.0" encoding="UTF-8"?>
<svg width="19px" height="23px" viewBox="0 0 19 23" version="1.1" xmlns="http://www.w3.org/2000/svg" xmlns:xlink="http://www.w3.org/1999/xlink">
    <title>Shape</title>
    <g id="Start-here" stroke="none" stroke-width="1" fill="none" fill-rule="evenodd">
        <g id="yonda_account_view_v2" transform="translate(-479.000000, -935.000000)" fill="#000000" fill-rule="nonzero">
            <g id="booking-history" transform="translate(265.000000, 916.000000)">
                <path d="M218.582206,19.213413 C218.206332,19.2200328 217.906358,19.5289529 217.910783,19.9048597 L217.910783,20.7404677 L219.277659,20.7404677 L219.277659,19.9048597 C219.279834,19.7201206 219.20713,19.5423693 219.076114,19.4121079 C218.945098,19.2818464 218.76693,19.2101709 218.582206,19.213413 L218.582206,19.213413 Z M227.76857,19.213413 C227.391122,19.2178477 227.088729,19.5274121 227.09314,19.9048597 L227.09314,20.7404677 L228.460016,20.7404677 L228.460016,19.9048597 C228.462167,19.7208257 228.390009,19.5437012 228.259869,19.4135606 C228.129728,19.28342 227.952604,19.2112622 227.76857,19.213413 L227.76857,19.213413 Z M214.681808,20.7418031 C214.332202,20.7768334 214.066105,21.0712154 214.066448,21.4225714 L214.066448,24.8384243 L232.304352,24.8384243 L232.304352,21.4225714 C232.302851,21.0472157 231.998936,20.743302 231.623581,20.7418031 L228.460016,20.7418031 L228.460016,22.9416185 C228.460403,22.9612088 228.459947,22.9808065 228.45865,23.0003576 C228.457034,23.0222747 228.454361,23.0441012 228.450642,23.0657609 C228.450644,23.066622 228.450644,23.067483 228.450642,23.068344 C228.450208,23.0714468 228.449753,23.0745465 228.449276,23.0776431 C228.445626,23.0969592 228.441144,23.116109 228.435844,23.1350389 C228.434919,23.1381453 228.433972,23.141245 228.433003,23.1443379 C228.432067,23.1465816 228.43112,23.1488203 228.430161,23.1510539 C228.42481,23.1704503 228.418604,23.1896009 228.411563,23.2084498 C228.406572,23.2206125 228.401232,23.2326288 228.395548,23.2444836 C228.392959,23.2502894 228.39029,23.2560588 228.387541,23.2617902 C228.380046,23.2763141 228.372034,23.2905646 228.363518,23.3045142 C228.360501,23.3103273 228.357401,23.3160967 228.354219,23.3218207 C228.35243,23.3245027 228.350621,23.3271719 228.348794,23.3298283 C228.337922,23.3463377 228.326339,23.3623678 228.314078,23.3778734 C228.303845,23.3907133 228.293153,23.4031804 228.282022,23.4152504 C228.278044,23.4202145 228.273997,23.4251228 228.269882,23.4299739 C228.267573,23.432229 228.265248,23.4344677 228.262907,23.4366899 C228.260599,23.438945 228.258274,23.4411837 228.255933,23.4434059 C228.241822,23.4569361 228.227136,23.4698547 228.211918,23.4821261 C228.196859,23.494805 228.18126,23.5068274 228.165164,23.51816 C228.146631,23.5311135 228.127467,23.5431396 228.107742,23.5541938 C228.104657,23.5560263 228.101557,23.5578345 228.098443,23.5596182 C228.093562,23.5619149 228.088654,23.5641537 228.08372,23.5663342 C228.06841,23.5740647 228.052814,23.5812163 228.036966,23.5877737 C228.019037,23.5957017 228.000775,23.6028548 227.982231,23.6092132 C227.979137,23.6100961 227.976038,23.6109571 227.972932,23.6117963 C227.968893,23.612694 227.964846,23.6135551 227.960791,23.6143794 C227.942739,23.6196072 227.924478,23.6240883 227.906056,23.6278113 C227.883965,23.6320073 227.861681,23.6351108 227.839284,23.6371104 C227.819759,23.6388127 227.80017,23.6396745 227.780571,23.6396934 C227.757406,23.640009 227.73424,23.6391469 227.711163,23.6371104 C227.688767,23.6351108 227.666482,23.6320073 227.644391,23.6278113 C227.625969,23.6240883 227.607708,23.6196072 227.589656,23.6143794 C227.584733,23.6130567 227.579825,23.6116789 227.574932,23.6102464 C227.554097,23.603656 227.53359,23.5960703 227.513481,23.5875154 C227.492548,23.5787504 227.472065,23.5689484 227.452107,23.5581459 C227.434793,23.5490853 227.417876,23.5392865 227.401402,23.5287764 C227.39872,23.5269871 227.39605,23.5251789 227.393394,23.5233519 C227.392446,23.5228986 227.391499,23.5224432 227.390553,23.5219855 C227.372563,23.5094818 227.355185,23.4961205 227.338478,23.4819479 C227.323233,23.4696782 227.308522,23.4567596 227.294385,23.4432277 C227.291256,23.4401579 227.288156,23.437058 227.285086,23.4339286 C227.279637,23.4278256 227.274297,23.4216252 227.269071,23.4153305 C227.25794,23.4032605 227.247248,23.3907934 227.237015,23.3779535 C227.224754,23.3624479 227.213171,23.3464178 227.202298,23.3299083 C227.201841,23.3290483 227.201386,23.3281873 227.200932,23.3273253 C227.196309,23.3198354 227.191831,23.312257 227.1875,23.3045942 C227.178984,23.2906447 227.170972,23.2763942 227.163478,23.2618703 C227.154711,23.2444241 227.146696,23.2266104 227.139455,23.2084782 C227.132414,23.1896293 227.126209,23.1704787 227.120857,23.1510823 C227.119456,23.147993 227.118078,23.1448932 227.116724,23.1417833 C227.116256,23.1395469 227.1158,23.1373082 227.115355,23.1350673 C227.110054,23.1161374 227.105573,23.0969876 227.101923,23.0776715 C227.101446,23.074575 227.100991,23.0714752 227.100556,23.0683724 C227.100555,23.0675114 227.100555,23.0666504 227.100556,23.0657893 C227.096838,23.0441296 227.094165,23.0223032 227.092549,23.000386 C227.091252,22.9808349 227.090796,22.9612372 227.091183,22.941647 L227.091183,20.7418264 L219.276523,20.7418264 L219.276523,22.9416418 C219.276909,22.961232 219.276453,22.9808298 219.275156,23.0003808 C219.27354,23.022298 219.270868,23.0441245 219.267149,23.0657842 C219.26715,23.0666452 219.26715,23.0675062 219.267149,23.0683673 C219.264563,23.0835962 219.261461,23.098733 219.25785,23.1137518 C219.255418,23.1240413 219.252748,23.134273 219.249842,23.1444387 C219.248907,23.1466824 219.24796,23.1489211 219.247001,23.1511547 C219.241649,23.170551 219.235444,23.1897016 219.228403,23.2085505 C219.221197,23.2271371 219.213182,23.2453997 219.20438,23.2632858 C219.20302,23.265964 219.201642,23.2686332 219.200247,23.2712933 C219.195505,23.2794011 219.190596,23.2874103 219.185524,23.2953159 C219.179615,23.3061586 219.173413,23.3168392 219.166926,23.3273459 C219.155699,23.3447941 219.143684,23.3617221 219.130918,23.3780774 C219.120685,23.3909174 219.109992,23.4033845 219.098862,23.4154545 C219.093635,23.4217492 219.088296,23.4279496 219.082847,23.4340526 C219.079777,23.437182 219.076677,23.4402819 219.073548,23.4433516 C219.059411,23.4568836 219.0447,23.4698022 219.029455,23.4820719 C219.012748,23.4962445 218.99537,23.5096058 218.97738,23.5221095 C218.969474,23.5271818 218.961465,23.5320907 218.953357,23.536833 C218.942842,23.5433209 218.932153,23.5495226 218.921301,23.5554311 C218.914217,23.559086 218.90707,23.5626168 218.899862,23.5660217 C218.885001,23.5737213 218.869863,23.5808727 218.854477,23.5874612 C218.834394,23.5960137 218.813913,23.6035994 218.793104,23.6101922 C218.788211,23.6116247 218.783303,23.6130024 218.77838,23.6143251 C218.760327,23.6195529 218.742067,23.6240341 218.723645,23.6277571 C218.701554,23.6319531 218.679269,23.6350565 218.656872,23.6370561 C218.620923,23.6403661 218.584767,23.640823 218.548745,23.6384226 C218.542023,23.6380663 218.535306,23.6376108 218.528597,23.6370561 C218.5062,23.6350565 218.483916,23.6319531 218.461825,23.6277571 C218.443403,23.6240341 218.425142,23.6195529 218.407089,23.6143251 C218.402166,23.6130024 218.397258,23.6116247 218.392366,23.6101922 C218.371557,23.6035994 218.351075,23.5960137 218.330992,23.5874612 C218.315607,23.5808727 218.300468,23.5737213 218.285608,23.5660217 C218.2784,23.5626168 218.271252,23.559086 218.264168,23.5554311 C218.253317,23.5495226 218.242628,23.5433209 218.232112,23.536833 C218.224004,23.5320907 218.215995,23.5271818 218.20809,23.5221095 C218.1901,23.5096058 218.172722,23.4962445 218.156015,23.4820719 C218.14077,23.4698022 218.126059,23.4568836 218.111922,23.4433516 C218.108793,23.4402819 218.105693,23.437182 218.102623,23.4340526 C218.097174,23.4279496 218.091834,23.4217492 218.086608,23.4154545 C218.075477,23.4033845 218.064785,23.3909174 218.054552,23.3780774 C218.042291,23.3625719 218.030708,23.3465418 218.019835,23.3300323 C218.019378,23.3291723 218.018923,23.3283113 218.018469,23.3274493 C218.013846,23.3199594 218.009368,23.312381 218.005037,23.3047182 C217.996521,23.2907686 217.988509,23.2765182 217.981015,23.2619942 C217.972248,23.2445481 217.964233,23.2267344 217.956992,23.2086022 C217.952678,23.1980286 217.94863,23.1873485 217.944852,23.1765721 C217.940371,23.1629096 217.936322,23.1491091 217.932711,23.1351913 C217.927411,23.1162614 217.922929,23.0971116 217.919279,23.0777955 C217.918802,23.0746989 217.918347,23.0715992 217.917913,23.0684964 C217.917911,23.0676354 217.917911,23.0667744 217.917913,23.0659133 C217.914194,23.0442536 217.911521,23.0224271 217.909905,23.00051 C217.908608,22.9809589 217.908152,22.9613612 217.908539,22.9417709 L217.908539,20.7418367 L214.745532,20.7418367 C214.723744,20.740793 214.701918,20.740793 214.680129,20.7418367 L214.681808,20.7418031 Z M214.066443,26.2052976 L214.066443,40.4079846 C214.065009,40.7854208 214.369776,41.0925804 214.747211,41.0940922 L231.623581,41.0940922 C232.00102,41.0925846 232.305791,40.7854238 232.304357,40.4079846 L232.304357,26.2052976 L214.066443,26.2052976 Z M226.750083,29.8333911 C227.030856,29.8290045 227.285745,29.9967905 227.392723,30.2564226 C227.499701,30.5160547 227.436998,30.8146997 227.234633,31.0093832 L221.457448,36.6343945 C221.295761,36.7914313 221.067049,36.8586603 220.846102,36.814097 C220.625155,36.7695337 220.440383,36.618908 220.352206,36.4114755 L218.985331,33.2132024 C218.882467,32.987663 218.90975,32.7241121 219.056635,32.5244275 C219.203519,32.3247429 219.446988,32.2202141 219.692927,32.2512475 C219.938866,32.2822809 220.148737,32.4440138 220.241413,32.6739269 L221.215846,34.9591723 L226.28022,30.0296115 C226.405724,29.9061335 226.574037,29.8358481 226.750083,29.8334014 L226.750083,29.8333911 Z" id="Shape"></path>
            </g>
        </g>
    </g>
</svg>