<?xml version="1.0" encoding="UTF-8"?>
<svg width="25px" height="17px" viewBox="0 0 25 17" version="1.1" xmlns="http://www.w3.org/2000/svg" xmlns:xlink="http://www.w3.org/1999/xlink">
    <title>Shape</title>
    <g id="Start-here" stroke="none" stroke-width="1" fill="none" fill-rule="evenodd">
        <g id="yonda_account_view_v2" transform="translate(-1373.000000, -423.000000)" fill="#000000" fill-rule="nonzero">
            <path d="M1374.51875,423 C1373.68192,423 1373,423.681919 1373,424.51875 L1373,426.0375 L1397.3,426.0375 L1397.3,424.51875 C1397.3,423.681919 1396.6196,423 1395.78125,423 L1374.51875,423 Z M1373,430.59375 L1373,438.1875 C1373,439.02585 1373.68192,439.70625 1374.51875,439.70625 L1395.78125,439.70625 C1396.6196,439.70625 1397.3,439.02585 1397.3,438.1875 L1397.3,430.59375 L1373,430.59375 Z M1376.79687,433.63125 L1379.83437,433.63125 C1380.25355,433.63125 1380.59375,433.97145 1380.59375,434.390625 C1380.59375,434.8098 1380.25355,435.15 1379.83437,435.15 L1376.79687,435.15 C1376.3777,435.15 1376.0375,434.8098 1376.0375,434.390625 C1376.0375,433.97145 1376.3777,433.63125 1376.79687,433.63125 Z" id="Shape"></path>
        </g>
    </g>
</svg>