<?xml version="1.0" encoding="UTF-8"?>
<svg width="45px" height="31px" viewBox="0 0 45 31" version="1.1" xmlns="http://www.w3.org/2000/svg" xmlns:xlink="http://www.w3.org/1999/xlink">
    <title>Shape</title>
    <g id="Start-here" stroke="none" stroke-width="1" fill="none" fill-rule="evenodd">
        <g id="yonda_account_view_payment_v1" transform="translate(-689.000000, -137.000000)" fill="#000000" fill-rule="nonzero">
            <path d="M691.8125,137 C690.262812,137 689,138.265364 689,139.818182 L689,142.636364 L734,142.636364 L734,139.818182 C734,138.265364 732.74,137 731.1875,137 L691.8125,137 Z M689,151.090909 L689,165.181818 C689,166.737455 690.262812,168 691.8125,168 L731.1875,168 C732.74,168 734,166.737455 734,165.181818 L734,151.090909 L689,151.090909 Z M696.03125,156.727273 L701.65625,156.727273 C702.4325,156.727273 703.0625,157.358545 703.0625,158.136364 C703.0625,158.914182 702.4325,159.545455 701.65625,159.545455 L696.03125,159.545455 C695.255,159.545455 694.625,158.914182 694.625,158.136364 C694.625,157.358545 695.255,156.727273 696.03125,156.727273 Z" id="Shape"></path>
        </g>
    </g>
</svg>