<?xml version="1.0" encoding="UTF-8"?>
<svg width="114px" height="36px" viewBox="0 0 114 36" version="1.1" xmlns="http://www.w3.org/2000/svg" xmlns:xlink="http://www.w3.org/1999/xlink">
    <title>Yonda_POS</title>
    <g id="Start-here" stroke="none" stroke-width="1" fill="none" fill-rule="evenodd">
        <g id="yonda_iphone_account_view_v1" transform="translate(-2.000000, -42.000000)" fill-rule="nonzero">
            <g id="Yonda_POS" transform="translate(2.000000, 42.000000)">
                <rect id="Rectangle" fill="#FFFFFF" x="0" y="0" width="113.38" height="35.36"></rect>
                <path d="M16.8,25.08 L16.8,20.14 C16.7977244,16.8919928 18.9026981,14.0178941 22,13.04 C23.7174799,15.1911438 24.099004,18.1178217 22.9904001,20.637376 C21.8817962,23.1569304 19.4662989,24.8529189 16.72,25.04 M8.91995353,17.68 C8.91401784,15.9936725 9.48573709,14.3561557 10.54,13.04 C13.6768852,13.9820674 15.8287298,16.8647271 15.84,20.14 L15.84,25.08 C11.9461984,24.817017 8.92164865,21.5826719 8.91995353,17.68 M16.32,10.28 C18.1921528,10.2869635 19.9924741,11.0013767 21.36,12.28 C19.0139988,13.1377488 17.168451,14.9906202 16.32,17.34 C15.4765202,14.983013 13.6302456,13.1220854 11.28,12.26 C12.6464431,10.9796689 14.4474644,10.264978 16.32,10.26 M23.12,12.8 C22.9019438,12.5203428 22.6682368,12.2532492 22.42,12 C20.839507,10.313509 18.6313221,9.35660739 16.32,9.35660739 C14.0086779,9.35660739 11.800493,10.313509 10.22,12 C9.96410171,12.267537 9.73002137,12.5551214 9.52,12.86 C8.51600937,14.2653214 7.98380763,15.9529611 8,17.68 C7.84900964,20.7679287 9.41047777,23.6881561 12.0623685,25.2773627 C14.7142592,26.8665693 18.0257408,26.8665693 20.6776315,25.2773627 C23.3295222,23.6881561 24.8909904,20.7679287 24.74,17.68 C24.7447603,15.9361435 24.1988114,14.2353026 23.18,12.82" id="Shape" fill="#231F20"></path>
                <path d="M48.72,21.2 C50.1292294,22.6656146 52.2925094,23.1181051 54.1710166,22.3401821 C56.0495238,21.5622591 57.2595375,19.7128282 57.22,17.68 C57.22,14.9517133 55.0082867,12.74 52.28,12.74 C49.5517133,12.74 47.34,14.9517133 47.34,17.68 C47.2966949,18.9931256 47.7957915,20.2661837 48.72,21.2 M56.72,13.32 C57.8958546,14.4597111 58.5351325,16.0433767 58.48,17.68 C58.5293627,19.2960046 57.9065955,20.860164 56.76,22 C54.2125854,24.2907635 50.3474146,24.2907635 47.8,22 C46.639983,20.8630103 45.9905133,19.3042829 46,17.68 C45.9547855,16.0451456 46.592512,14.4653231 47.76,13.32 C50.3074146,11.0292365 54.1725854,11.0292365 56.72,13.32" id="Shape" fill="#231F20"></path>
                <path d="M81.06,22.36 L84,22.36 C85.3409123,22.4577184 86.6634027,22.0024348 87.66,21.1 C88.5309274,20.1808395 88.9864211,18.9444994 88.92,17.68 C88.9864211,16.4155006 88.5309274,15.1791605 87.66,14.26 C86.6634027,13.3575652 85.3409123,12.9022816 84,13 L81.06,13 L81.06,22.36 Z M83.96,23.54 L79.76,23.54 L79.76,11.82 L84,11.82 C85.6756338,11.7195758 87.3227024,12.2877786 88.58,13.4 C89.7035728,14.5329795 90.2987736,16.0863083 90.22,17.68 C90.3023407,19.2937943 89.6909915,20.8658349 88.54,22 C87.2884475,23.1220294 85.6371581,23.6916882 83.96,23.58" id="Shape" fill="#231F20"></path>
                <path d="M104.14,18.42 L104.14,16.6 C104.195014,15.5714588 103.851144,14.5613384 103.18,13.78 C102.415078,13.0770865 101.39687,12.7160197 100.36,12.78 C99.3188742,12.7117637 98.2965732,13.0815321 97.54,13.8 C96.8737347,14.5762405 96.5301893,15.5782477 96.58,16.6 L96.58,18.42 L104.14,18.42 Z M105.44,23.54 L104.14,23.54 L104.14,19.54 L96.58,19.54 L96.58,23.54 L95.32,23.54 L95.32,16.6 C95.2446315,15.2453578 95.7207882,13.9178906 96.64,12.92 C98.828244,11.1756499 101.931756,11.1756499 104.12,12.92 C105.039212,13.9178906 105.515368,15.2453578 105.44,16.6 L105.44,23.54 Z" id="Shape" fill="#231F20"></path>
                <path d="M72.5,18.42 L72.5,16.6 C72.5550144,15.5714588 72.2111436,14.5613384 71.54,13.78 C70.7689367,13.0739535 69.7433252,12.7128227 68.7,12.78 C67.69903,12.7404777 66.7248119,13.1085156 66,13.8 C65.326518,14.573221 64.9757008,15.5755556 65.02,16.6 L65.02,23.54 L63.78,23.54 L63.78,16.6 C63.7046315,15.2453578 64.1807882,13.9178906 65.1,12.92 C66.1064961,11.9884477 67.451446,11.5112074 68.82,11.6 C70.2011257,11.5071744 71.5599808,11.9842192 72.58,12.92 C73.4630491,13.9338037 73.9025314,15.259455 73.8,16.6 L73.8,23.54 L72.5,23.54 L72.5,18.42 Z" id="Path" fill="#231F20"></path>
                <polygon id="Path" fill="#231F20" points="38.52 23.54 37.22 23.54 37.22 18.4 32.4 11.82 33.96 11.82 37.88 17.3 37.92 17.3 41.8 11.82 43.32 11.82 38.52 18.38"></polygon>
            </g>
        </g>
    </g>
</svg>