<?xml version="1.0" encoding="UTF-8"?>
<svg width="28px" height="37px" viewBox="0 0 28 37" version="1.1" xmlns="http://www.w3.org/2000/svg" xmlns:xlink="http://www.w3.org/1999/xlink">
    <title>bell copy</title>
    <g id="Start-here" stroke="none" stroke-width="1" fill="none" fill-rule="evenodd">
        <g id="yonda_account_view_notifications_v1" transform="translate(-745.000000, -133.000000)" fill="#000000" fill-rule="nonzero">
            <g id="bell-copy" transform="translate(745.000000, 133.000000)">
                <path d="M13.9069618,36.9792 C16.4125618,36.9792 18.4429618,34.9056 18.4429618,32.3136 L9.37096183,32.3136 C9.37096183,34.8624 11.4013618,36.9792 13.9069618,36.9792 Z" id="Path"></path>
                <path d="M3.62536183,16.7184 C2.28616183,23.5008 0.903761833,27.432 0.0829618326,29.376 C-0.219438167,30.1536 0.342161833,31.0176 1.16296183,31.0176 L12.5245618,31.0176 L15.2893618,31.0176 L26.6509618,31.0176 C27.5149618,31.0176 28.0765618,30.1536 27.7309618,29.376 C27.5149618,28.8144 27.2125618,28.08 26.9101618,27.1728 L4.83496183,27.1728 C4.35976183,27.1728 3.97096183,26.784 3.97096183,26.2656 C3.97096183,25.7904 4.35976183,25.3584 4.83496183,25.3584 L26.3053618,25.3584 C25.6573618,23.1984 24.9229618,20.3904 24.1885618,16.6752 C23.0653618,11.0592 20.4301618,8.2512 18.1837618,6.8256 C18.4861618,6.1776 18.6589618,5.4864 18.6589618,4.752 C18.6589618,2.1168 16.5421618,4.54747351e-13 13.9069618,4.54747351e-13 C11.2717618,4.54747351e-13 9.15496183,2.1168 9.15496183,4.752 C9.15496183,5.4864 9.32776183,6.1776 9.63016183,6.8256 C7.38376183,8.2512 4.74856183,11.1024 3.62536183,16.7184 Z M10.8829618,4.752 C10.8829618,3.0672 12.2221618,1.728 13.9069618,1.728 C15.5917618,1.728 16.9309618,3.0672 16.9309618,4.752 C16.9309618,5.184 16.8445618,5.616 16.6285618,6.048 C15.2461618,5.4864 14.2525618,5.4 14.2525618,5.4 L13.5613618,5.4 C13.5613618,5.4 12.5677618,5.4432 11.1853618,6.048 C10.9693618,5.6592 10.8829618,5.2272 10.8829618,4.752 Z" id="Shape"></path>
            </g>
        </g>
    </g>
</svg>