<?xml version="1.0" encoding="UTF-8"?>
<svg width="98px" height="98px" viewBox="0 0 98 98" version="1.1" xmlns="http://www.w3.org/2000/svg" xmlns:xlink="http://www.w3.org/1999/xlink">
    <title>noun_account_2195459</title>
    <g id="Start-here" stroke="none" stroke-width="1" fill="none" fill-rule="evenodd">
        <g id="yonda_account_view_v2" transform="translate(-261.000000, -266.000000)" fill="#9013FE" fill-rule="nonzero">
            <g id="noun_account_2195459" transform="translate(261.000000, 266.000000)">
                <path d="M49.0174992,0 C28.7005895,-0.0015926476 10.4890767,12.5309709 3.23374505,31.5068725 C-4.02158664,50.4827741 1.18367293,71.9673155 16.3197708,85.5190228 C17.535443,86.6136906 18.8092593,87.6420183 20.1356727,88.5995279 C37.3372413,101.133491 60.6627488,101.133491 77.8643174,88.5995279 C79.1909793,87.6423437 80.4648129,86.6140021 81.6802193,85.5190228 C96.8115578,71.9715848 102.018776,50.4957334 94.7725046,31.5232144 C87.5262328,12.5506954 69.328011,0.0129098018 49.0174992,0 Z M49.0174992,17.50287 C56.7513137,17.50287 63.020809,23.7719115 63.020809,31.505166 C63.020809,39.2384205 56.7513137,45.507462 49.0174992,45.507462 C41.2836847,45.507462 35.0141894,39.2384205 35.0141894,31.505166 C35.0141894,23.7719115 41.2836847,17.50287 49.0174992,17.50287 Z M49.0174992,87.5145417 C37.528361,87.5088331 26.6417517,82.3740118 19.3304824,73.512054 C23.7377892,60.8484669 35.6780409,52.3617255 49.0875158,52.3617255 C62.4969906,52.3617255 74.4372423,60.8484669 78.8445491,73.512054 C71.5021185,82.4118963 60.5556371,87.5507174 49.0174992,87.5145417 L49.0174992,87.5145417 Z" id="Shape"></path>
            </g>
        </g>
    </g>
</svg>