<?xml version="1.0" encoding="UTF-8"?>
<svg width="35px" height="19px" viewBox="0 0 35 19" version="1.1" xmlns="http://www.w3.org/2000/svg" xmlns:xlink="http://www.w3.org/1999/xlink">
    <title>noun_visible_2391186</title>
    <g id="Symbols" stroke="none" stroke-width="1" fill="none" fill-rule="evenodd">
        <g id="password-error-state" transform="translate(-471.000000, -43.000000)" fill="#4D4D4D" fill-rule="nonzero">
            <g id="noun_visible_2391186" transform="translate(471.000000, 43.000000)">
                <circle id="Oval" cx="17.5" cy="9.5" r="3.5"></circle>
                <path d="M0,9.4255764 C0,9.4255764 15.7185629,30.9680295 35,9.4255764 C15.7185629,-11.7819705 0,9.4255764 0,9.4255764 Z M18.0415147,16.5825574 C17.8050045,16.6111614 17.5649818,16.6302308 17.3214465,16.6302308 C16.4187268,16.6302308 15.5593283,16.4228512 14.7795471,16.0545736 C12.2575519,14.9735775 10.486067,12.4337729 10.486067,9.47324988 C10.486067,5.52946137 13.6250962,2.33414648 17.4982437,2.33414648 C21.3713913,2.33414648 24.5115917,5.53065321 24.5115917,9.47324988 C24.5127622,13.2287281 21.6617603,16.300092 18.0415147,16.5825574 Z" id="Shape"></path>
            </g>
        </g>
    </g>
</svg>