<?xml version="1.0" encoding="UTF-8"?>
<svg width="21px" height="24px" viewBox="0 0 21 24" version="1.1" xmlns="http://www.w3.org/2000/svg" xmlns:xlink="http://www.w3.org/1999/xlink">
    <title>Group</title>
    <g id="Start-here" stroke="none" stroke-width="1" fill="none" fill-rule="evenodd">
        <g id="yonda_account_view_v2" transform="translate(-972.000000, -418.000000)" fill="#000000" fill-rule="nonzero">
            <g id="my-subcription" transform="translate(749.000000, 399.000000)">
                <g id="Group" transform="translate(223.278125, 19.759375)">
                    <polygon id="Path" points="3.0375 0 3.0375 1.51875 18.225 1.51875 18.225 19.74375 19.74375 19.74375 19.74375 0"></polygon>
                    <path d="M0,3.0375 L0,22.78125 L16.70625,22.78125 L16.70625,3.0375 L0,3.0375 Z M12.15,13.66875 L9.1125,13.66875 L9.1125,16.70625 C9.1125,17.1261844 8.77305938,17.465625 8.353125,17.465625 C7.93319062,17.465625 7.59375,17.1261844 7.59375,16.70625 L7.59375,13.66875 L4.55625,13.66875 C4.13631562,13.66875 3.796875,13.3293094 3.796875,12.909375 C3.796875,12.4894406 4.13631562,12.15 4.55625,12.15 L7.59375,12.15 L7.59375,9.1125 C7.59375,8.69256562 7.93319062,8.353125 8.353125,8.353125 C8.77305938,8.353125 9.1125,8.69256562 9.1125,9.1125 L9.1125,12.15 L12.15,12.15 C12.5699344,12.15 12.909375,12.4894406 12.909375,12.909375 C12.909375,13.3293094 12.5699344,13.66875 12.15,13.66875 Z" id="Shape"></path>
                </g>
            </g>
        </g>
    </g>
</svg>