<?xml version="1.0" encoding="UTF-8"?>
<svg width="19px" height="25px" viewBox="0 0 19 25" version="1.1" xmlns="http://www.w3.org/2000/svg" xmlns:xlink="http://www.w3.org/1999/xlink">
    <title>Bell</title>
    <g id="Start-here" stroke="none" stroke-width="1" fill="none" fill-rule="evenodd">
        <g id="yonda_account_view_v2" transform="translate(-1410.000000, -631.000000)" fill="#000000" fill-rule="nonzero">
            <g id="notifications" transform="translate(1222.000000, 612.000000)">
                <g id="Bell" transform="translate(188.218149, 19.054000)">
                    <path d="M8.69185115,23.112 C10.2578511,23.112 11.5268511,21.816 11.5268511,20.196 L5.85685115,20.196 C5.85685115,21.789 7.12585115,23.112 8.69185115,23.112 Z" id="Path"></path>
                    <path d="M2.26585115,10.449 C1.42885115,14.688 0.564851145,17.145 0.0518511453,18.36 C-0.137148855,18.846 0.213851145,19.386 0.726851145,19.386 L7.82785115,19.386 L9.55585115,19.386 L16.6568511,19.386 C17.1968511,19.386 17.5478511,18.846 17.3318511,18.36 C17.1968511,18.009 17.0078511,17.55 16.8188511,16.983 L3.02185115,16.983 C2.72485115,16.983 2.48185115,16.74 2.48185115,16.416 C2.48185115,16.119 2.72485115,15.849 3.02185115,15.849 L16.4408511,15.849 C16.0358511,14.499 15.5768511,12.744 15.1178511,10.422 C14.4158511,6.912 12.7688511,5.157 11.3648511,4.266 C11.5538511,3.861 11.6618511,3.429 11.6618511,2.97 C11.6618511,1.323 10.3388511,2.11386464e-13 8.69185115,2.11386464e-13 C7.04485115,2.11386464e-13 5.72185115,1.323 5.72185115,2.97 C5.72185115,3.429 5.82985115,3.861 6.01885115,4.266 C4.61485115,5.157 2.96785115,6.939 2.26585115,10.449 Z M6.80185115,2.97 C6.80185115,1.917 7.63885115,1.08 8.69185115,1.08 C9.74485115,1.08 10.5818511,1.917 10.5818511,2.97 C10.5818511,3.24 10.5278511,3.51 10.3928511,3.78 C9.52885115,3.429 8.90785115,3.375 8.90785115,3.375 L8.47585115,3.375 C8.47585115,3.375 7.85485115,3.402 6.99085115,3.78 C6.85585115,3.537 6.80185115,3.267 6.80185115,2.97 Z" id="Shape"></path>
                </g>
            </g>
        </g>
    </g>
</svg>