<?xml version="1.0" encoding="UTF-8"?>
<svg width="34px" height="41px" viewBox="0 0 34 41" version="1.1" xmlns="http://www.w3.org/2000/svg" xmlns:xlink="http://www.w3.org/1999/xlink">
    <title>noun_booking_3266102</title>
    <g id="Start-here" stroke="none" stroke-width="1" fill="none" fill-rule="evenodd">
        <g id="yonda_account_booking" transform="translate(-793.000000, -130.000000)" fill="#000000" fill-rule="nonzero">
            <g id="noun_booking_3266102" transform="translate(793.000000, 130.000000)">
                <path d="M8.38080688,0.390330126 C7.69333624,0.402437641 7.14468701,0.967449341 7.15278169,1.65497894 L7.15278169,3.18329704 L9.65278326,3.18329704 L9.65278326,1.65497894 C9.65676102,1.31709293 9.52378673,0.991987821 9.28415946,0.75374099 C9.0445322,0.51549416 8.71866428,0.384400337 8.38080688,0.390330126 L8.38080688,0.390330126 Z M25.182569,0.390330126 C24.4922217,0.398441232 23.9391478,0.964631154 23.9472163,1.65497894 L23.9472163,3.18329704 L26.4472178,3.18329704 L26.4472178,1.65497894 C26.4511516,1.3183827 26.3191757,0.994423698 26.08115,0.756397964 C25.8431243,0.51837223 25.5191653,0.386396396 25.182569,0.390330126 L25.182569,0.390330126 Z M1.24701975,3.18573956 C0.607594851,3.24980962 0.120905047,3.7882312 0.121532529,4.43085767 L0.121532529,10.6784167 L33.4784666,10.6784167 L33.4784666,4.43085767 C33.4757225,3.74433596 32.9198655,3.1884811 32.2333438,3.18573956 L26.4472178,3.18573956 L26.4472178,7.20917887 C26.4479248,7.24500916 26.447091,7.28085328 26.4447186,7.31661194 C26.4417624,7.35669819 26.4368748,7.39661857 26.430073,7.43623399 C26.4300759,7.43780879 26.4300759,7.4393836 26.430073,7.4409584 C26.4292789,7.44663335 26.4284458,7.45230277 26.4275737,7.45796627 C26.4208979,7.49329535 26.4127013,7.52832003 26.4030068,7.56294265 C26.4013149,7.56862419 26.3995825,7.57429362 26.39781,7.57995052 C26.3960995,7.58405422 26.3943672,7.58814877 26.3926131,7.59223399 C26.382825,7.62770967 26.3714753,7.6627359 26.3585974,7.69721036 C26.3494694,7.71945596 26.3397015,7.7414336 26.329306,7.76311588 C26.3245715,7.77373464 26.3196892,7.78428685 26.3146604,7.79476942 C26.3009535,7.82133351 26.2862984,7.8473975 26.2707233,7.87291115 C26.265206,7.88354326 26.2595361,7.89409553 26.2537155,7.90456469 C26.250443,7.90946992 26.2471358,7.91435193 26.2437942,7.91921036 C26.2239093,7.94940598 26.2027241,7.97872487 26.1802982,8.00708438 C26.1615821,8.03056847 26.1420262,8.05337066 26.1216682,8.07544658 C26.1143923,8.08452584 26.10699,8.09350309 26.0994635,8.10237572 C26.0952406,8.10650027 26.0909885,8.11059486 26.0867076,8.11465918 C26.0824847,8.11878373 26.0782326,8.12287832 26.0739517,8.12694265 C26.048142,8.15168922 26.0212827,8.17531724 25.9934478,8.19776154 C25.965906,8.22095101 25.9373755,8.24294001 25.9079359,8.26366706 C25.8740396,8.28735893 25.8389886,8.30935447 25.8029123,8.32957257 C25.7972692,8.33292424 25.7915997,8.33623143 25.7859045,8.33949383 C25.7769769,8.34369442 25.7679998,8.3477892 25.7589753,8.35177729 C25.7309734,8.36591624 25.7024493,8.37899636 25.6734635,8.39098989 C25.6406711,8.40549015 25.6072702,8.41857311 25.5733533,8.43020249 C25.5676952,8.43181729 25.5620257,8.43339213 25.5563454,8.4349269 C25.5489583,8.43656886 25.5415564,8.43814373 25.5341407,8.43965131 C25.5011225,8.44921297 25.467724,8.45740891 25.4340304,8.46421824 C25.3936263,8.47189263 25.3528681,8.47756882 25.3119045,8.48122611 C25.2761935,8.48433957 25.2403651,8.48591583 25.2045186,8.48595052 C25.162151,8.48652775 25.1197813,8.48495091 25.0775737,8.48122611 C25.0366101,8.47756882 24.9958519,8.47189263 24.9554478,8.46421824 C24.9217542,8.45740891 24.8883557,8.44921297 24.8553375,8.43965131 C24.8463332,8.43723211 24.8373563,8.43471226 24.8284084,8.43209225 C24.7903009,8.42003839 24.7527932,8.40616419 24.7160147,8.39051745 C24.6777289,8.37448626 24.6402652,8.35655855 24.6037627,8.33680091 C24.5720958,8.32022916 24.541154,8.30230718 24.5110226,8.28308438 C24.5061173,8.27981187 24.5012353,8.2765047 24.4963769,8.27316312 C24.4946427,8.27233404 24.4929104,8.27150097 24.49118,8.27066391 C24.4582769,8.24779476 24.4264922,8.22335711 24.395936,8.19743556 C24.3680528,8.17499445 24.3411461,8.15136639 24.3152903,8.12661666 C24.3095666,8.12100204 24.303897,8.11533248 24.2982824,8.10960879 C24.2883159,8.09844641 24.2785505,8.087106 24.2689911,8.07559304 C24.2486331,8.05351712 24.2290772,8.03071493 24.2103612,8.00723084 C24.1879352,7.97887133 24.16675,7.94955244 24.1468651,7.91935682 C24.1460287,7.9177838 24.1451956,7.91620899 24.1443659,7.91463241 C24.13591,7.90093359 24.1277195,7.88707274 24.1197989,7.87305761 C24.1042239,7.84754395 24.0895688,7.82147996 24.0758619,7.79491588 C24.0598284,7.76300708 24.0451693,7.73042603 24.0319249,7.69726233 C24.019047,7.66278787 24.0076973,7.62776163 23.9979092,7.59228596 C23.9953473,7.5866355 23.9928276,7.58096605 23.9903501,7.57527808 C23.989495,7.5711878 23.9886603,7.56709326 23.9878462,7.56299462 C23.9781517,7.528372 23.9699551,7.49334732 23.9632793,7.45801824 C23.9624072,7.45235474 23.9615741,7.44668532 23.9607801,7.44101037 C23.9607771,7.43943556 23.9607771,7.43786076 23.9607801,7.43628596 C23.9539782,7.39667054 23.9490906,7.35675016 23.9461344,7.31666391 C23.943762,7.28090525 23.9429282,7.24506113 23.9436352,7.20923084 L23.9436352,3.18578208 L9.65070452,3.18578208 L9.65070452,7.20922139 C9.65141149,7.24505168 9.65057765,7.2808958 9.6482053,7.31665446 C9.64524907,7.35674071 9.6403615,7.39666109 9.63355963,7.43627651 C9.63356261,7.43785131 9.63356261,7.43942612 9.63355963,7.44100092 C9.6288298,7.46885442 9.62315726,7.4965396 9.61655176,7.52400879 C9.61210456,7.54282819 9.60722136,7.56154189 9.60190609,7.58013477 C9.60019566,7.58423847 9.59846335,7.58833302 9.59670924,7.59241824 C9.58692111,7.62789392 9.57557147,7.66292015 9.56269349,7.69739462 C9.54951448,7.73138935 9.5348548,7.76479135 9.51875649,7.79750485 C9.516269,7.8024033 9.51374926,7.80728529 9.51119743,7.81215052 C9.50252386,7.82697964 9.49354557,7.84162842 9.4842683,7.85608753 C9.4734609,7.87591873 9.46211815,7.89545345 9.45025255,7.91467021 C9.42971925,7.94658274 9.40774374,7.97754392 9.38439428,8.00745761 C9.36567828,8.0309417 9.34612229,8.05374389 9.32576436,8.07581981 C9.31620493,8.08733277 9.30643957,8.09867318 9.29647302,8.10983556 C9.29085839,8.11555925 9.28518884,8.12122881 9.27946515,8.12684343 C9.2536093,8.15159316 9.22670263,8.17522122 9.19881948,8.19766233 C9.16826321,8.22358388 9.13647849,8.24802153 9.10357538,8.27089068 C9.08911628,8.28016795 9.0744675,8.28914624 9.05963838,8.29781981 C9.04040607,8.30968616 9.02085558,8.32102891 9.00100846,8.33183556 C8.98805153,8.33852039 8.97497866,8.34497807 8.96179586,8.35120564 C8.93461592,8.36528825 8.90692797,8.37836793 8.87878798,8.39041824 C8.84205589,8.40606074 8.80459565,8.4199349 8.76653602,8.43199304 C8.7575881,8.43461305 8.74861116,8.43713289 8.73960688,8.43955209 C8.7065887,8.44911376 8.67319025,8.4573097 8.63949665,8.46411902 C8.59909248,8.47179342 8.55833427,8.47746961 8.51737066,8.4811269 C8.45161881,8.48718071 8.38549072,8.48801639 8.31960688,8.48362611 C8.30731178,8.48297453 8.29502698,8.48214136 8.28275649,8.4811269 C8.24179288,8.47746961 8.20103467,8.47179342 8.16063051,8.46411902 C8.12693691,8.4573097 8.09353845,8.44911376 8.06052027,8.43955209 C8.05151599,8.43713289 8.04253905,8.43461305 8.03359114,8.43199304 C7.9955315,8.4199349 7.95807126,8.40606074 7.92133917,8.39041824 C7.89319918,8.37836793 7.86551123,8.36528825 7.8383313,8.35120564 C7.82514849,8.34497807 7.81207563,8.33852039 7.7991187,8.33183556 C7.77927157,8.32102891 7.75972109,8.30968616 7.74048878,8.29781981 C7.72565966,8.28914624 7.71101088,8.28016795 7.69655177,8.27089068 C7.66364866,8.24802153 7.63186395,8.22358388 7.60130767,8.19766233 C7.57342452,8.17522122 7.54651785,8.15159316 7.52066201,8.12684343 C7.51493831,8.12122881 7.50926876,8.11555925 7.50365413,8.10983556 C7.49368758,8.09867318 7.48392223,8.08733277 7.47436279,8.07581981 C7.45400487,8.05374389 7.43444888,8.0309417 7.41573287,8.00745761 C7.39330695,7.9790981 7.37212169,7.94977921 7.35223681,7.91958359 C7.35140037,7.91801057 7.3505673,7.91643576 7.3497376,7.91485918 C7.34128173,7.90116036 7.33309123,7.88729951 7.32517067,7.87328438 C7.30959561,7.84777073 7.29494053,7.82170673 7.28123366,7.79514265 C7.26520015,7.76323386 7.25054104,7.7306528 7.23729665,7.69748911 C7.22940692,7.67815008 7.22200303,7.65861639 7.21509193,7.63890643 C7.20689624,7.61391788 7.19949098,7.58867698 7.1928872,7.56322139 C7.18319267,7.52859877 7.17499607,7.49357409 7.16832027,7.45824501 C7.16744824,7.45258151 7.16661515,7.44691209 7.16582106,7.44123714 C7.16581809,7.43966234 7.16581809,7.43808753 7.16582106,7.43651273 C7.15901919,7.39689731 7.15413163,7.35697693 7.15117539,7.31689068 C7.14880304,7.28113202 7.1479692,7.2452879 7.14867618,7.20945761 L7.14867618,3.18580098 L1.36357093,3.18580098 C1.32371976,3.18389215 1.28380005,3.18389215 1.24394888,3.18580098 L1.24701975,3.18573956 Z M0.121523845,13.1784135 L0.121523845,39.1549787 C0.118899922,39.8453055 0.676315596,40.4070972 1.36664179,40.4098622 L32.2333438,40.4098622 C32.9236755,40.407105 33.4810998,39.845311 33.4784759,39.1549787 L33.4784759,13.1784135 L0.121523845,13.1784135 Z M23.3197675,19.8141583 C23.8332994,19.8061353 24.2994884,20.1130142 24.4951494,20.5878786 C24.6908104,21.0627429 24.5761278,21.6089615 24.2060052,21.9650355 L13.6395943,32.2531221 C13.3438701,32.5403408 12.9255578,32.6633019 12.5214487,32.5817961 C12.1173396,32.5002903 11.7793925,32.2247974 11.6181187,31.8454055 L9.11811712,25.9957977 C8.92998043,25.5832886 8.97988198,25.1012567 9.24853193,24.7360357 C9.51718187,24.3708146 9.96248425,24.1796325 10.4123037,24.2363922 C10.8621231,24.293152 11.2459755,24.5889598 11.4154793,25.0094686 L13.1977061,29.1891583 L22.4603927,20.1730434 C22.6899396,19.9472035 22.9977808,19.8186522 23.3197675,19.8141772 L23.3197675,19.8141583 Z" id="Shape"></path>
            </g>
        </g>
    </g>
</svg>