<?xml version="1.0" encoding="UTF-8"?>
<svg width="44px" height="22px" viewBox="0 0 44 22" version="1.1" xmlns="http://www.w3.org/2000/svg" xmlns:xlink="http://www.w3.org/1999/xlink">
    <title>toggle off</title>
    <g id="Start-here" stroke="none" stroke-width="1" fill="none" fill-rule="evenodd">
        <g id="yonda_account_view_notifications_edit_v1" transform="translate(-1184.000000, -425.000000)" fill="#FFFFFF" stroke="#4D4D4D">
            <g id="deals-and-promotions" transform="translate(724.000000, 425.000000)">
                <g id="noun_Toggle-On_1217305" transform="translate(460.000000, 0.000000)">
                    <path d="M33.1094,0.60937 C35.9668222,0.60937 38.5641521,1.77884746 40.4473357,3.66202936 C42.3305223,5.54521418 43.5,8.14254521 43.5,10.99996 C43.5,13.8573888 42.3305211,16.4547359 40.4473328,18.337933 C38.5641495,20.2211248 35.966821,21.39061 33.1094,21.39061 L33.1094,21.39061 L10.8906,21.39061 C8.03472789,21.39061 5.43691866,20.220712 3.55309995,18.3368846 C1.67009326,16.4538693 0.5,13.8570527 0.5,10.99996 C0.5,8.14288121 1.67009215,5.54608082 3.553097,3.6630777 C5.43691613,1.7792603 8.03472661,0.60937 10.8906,0.60937 L10.8906,0.60937 Z" id="Path"></path>
                    <path d="M10.3281,4.515635 C12.1153118,4.515635 13.7415298,5.24484179 14.9204439,6.42111599 C16.0968167,7.59485452 16.8281,9.21418848 16.8281,10.99996 C16.8281,12.7858873 16.0954154,14.4105066 14.917028,15.588894 C13.7386483,16.7672736 12.1140387,17.49996 10.3281,17.49996 C8.54230025,17.49996 6.92296497,16.7686836 5.74922981,15.5923184 C4.57295017,14.4134031 3.84375,12.7871788 3.84375,10.99996 C3.84375,9.21289513 4.57155703,7.59196493 5.74582427,6.41770188 C6.92009043,5.24343993 8.54102528,4.515635 10.3281,4.515635 Z" id="Path"></path>
                </g>
            </g>
        </g>
    </g>
</svg>