<?xml version="1.0" encoding="UTF-8"?>
<svg width="52px" height="38px" viewBox="0 0 52 38" version="1.1" xmlns="http://www.w3.org/2000/svg" xmlns:xlink="http://www.w3.org/1999/xlink">
    <title>noun_Travel_1831704</title>
    <g id="Start-here" stroke="none" stroke-width="1" fill="none" fill-rule="evenodd">
        <g id="yonda_account_travel_preferences" transform="translate(-815.000000, -137.000000)" fill="#000000" fill-rule="nonzero">
            <g id="noun_Travel_1831704" transform="translate(815.000000, 137.000000)">
                <path d="M49.4450863,1.01325474 C48.3464589,0.293507368 46.9910905,0.105313684 45.7865263,0.636867368 L11.4997558,15.7447074 L5.58661053,11.5670568 C5.58661053,11.5670568 5.00458105,11.3128084 4.13340632,11.6966737 C3.26223158,12.0811621 0.162021053,13.4471242 0.162021053,13.4471242 L9.13113263,23.2039074 C9.13237895,23.2051537 9.13424842,23.2064 9.13487158,23.2082695 L9.16727579,23.2431663 L9.16789895,23.2431663 C10.3487832,24.5237558 12.1335074,25.0166737 13.6727074,24.3386779 L26.3315368,18.7607916 L23.6426105,37.6798653 C23.6426105,37.6798653 26.0162189,36.6342063 27.3778189,36.0341053 C28.7406653,35.4340042 29.0067537,34.3721432 29.0067537,34.3721432 L37.2866526,13.9319411 L49.3098611,8.63447579 C51.2996042,7.75769263 52.1240421,5.25633684 51.1512926,3.04786526 C51.0241684,2.75996632 50.8721179,2.49138526 50.7007495,2.24399158" id="Path"></path>
                <path d="M28.6135411,7.20682105 L16.6545179,2.38669474 C16.6545179,2.38669474 16.0724884,2.13306947 15.2013137,2.51693474 C14.3301389,2.9008 11.2299284,4.26613895 11.2299284,4.26613895 L20.1884463,10.9189726 L28.6135411,7.20682105 Z" id="Path"></path>
            </g>
        </g>
    </g>
</svg>