<?xml version="1.0" encoding="UTF-8"?>
<svg width="35px" height="26px" viewBox="0 0 35 26" version="1.1" xmlns="http://www.w3.org/2000/svg" xmlns:xlink="http://www.w3.org/1999/xlink">
    <title>noun_Invisible_1861800</title>
    <g id="Symbols" stroke="none" stroke-width="1" fill="none" fill-rule="evenodd">
        <g id="password-field-selected" transform="translate(-471.000000, -29.000000)" fill="#4D4D4D" fill-rule="nonzero">
            <g id="noun_Invisible_1861800" transform="translate(471.000000, 29.000000)">
                <path d="M10.9111111,14.5111111 C10.7872696,13.9940225 10.7202063,13.4649672 10.7111111,12.9333333 C10.7111111,9.251435 13.6958794,6.26666667 17.3777778,6.26666667 L17.9111111,6.26666667 L19.7111111,4.17777778 C18.9375435,4.07736773 18.157748,4.03280799 17.3777778,4.04444444 C9.35555556,4.04444444 2.57777778,9.97777778 0.355555556,12.1555556 C0.140717276,12.3571852 0.0188474536,12.638698 0.0188474536,12.9333333 C0.0188474536,13.2279687 0.140717276,13.5094815 0.355555556,13.7111111 C2.41125817,15.7104976 4.71087944,17.4426799 7.2,18.8666667 L10.9111111,14.5111111 Z" id="Path"></path>
                <path d="M34.4,12.1555556 C32.3442974,10.1561691 30.0446761,8.42398681 27.5555556,7 L23.8444444,11.4444444 C23.9620581,11.9325568 24.0290785,12.4314862 24.0444444,12.9333333 C24.0444444,16.6152317 21.0596761,19.6 17.3777778,19.6 L16.8444444,19.6 L15.1555556,21.6444444 C15.8913513,21.7545219 16.63384,21.813921 17.3777778,21.8222222 C25.4,21.8222222 32.1777778,15.8888889 34.4,13.7111111 C34.6148383,13.5094815 34.7367081,13.2279687 34.7367081,12.9333333 C34.7367081,12.638698 34.6148383,12.3571852 34.4,12.1555556 L34.4,12.1555556 Z" id="Path"></path>
                <path d="M28.4888889,1.82222222 L26.6222222,0.222222222 C26.4378061,0.0606042106 26.1621939,0.0606042106 25.9777778,0.222222222 L6.26666667,23.3333333 C6.16236444,23.4219998 6.1022549,23.5519922 6.1022549,23.6888889 C6.1022549,23.8257856 6.16236444,23.955778 6.26666667,24.0444444 L8.11111111,25.6222222 C8.29552721,25.7838402 8.57113946,25.7838402 8.75555556,25.6222222 L28.4888889,2.51111111 C28.6005587,2.43194346 28.6669193,2.30355227 28.6669193,2.16666667 C28.6669193,2.02978106 28.6005587,1.90138987 28.4888889,1.82222222 Z" id="Path"></path>
            </g>
        </g>
    </g>
</svg>