<?xml version="1.0" encoding="UTF-8"?>
<svg width="27px" height="27px" viewBox="0 0 27 27" version="1.1" xmlns="http://www.w3.org/2000/svg" xmlns:xlink="http://www.w3.org/1999/xlink">
    <title>noun_edit_1072351</title>
    <g id="Start-here" stroke="none" stroke-width="1" fill="none" fill-rule="evenodd">
        <g id="yonda_account_view_note_added" transform="translate(-1224.000000, -444.000000)" fill="#9013FE" fill-rule="nonzero">
            <g id="Group" transform="translate(643.000000, 256.000000)">
                <g id="noun_edit_1072351" transform="translate(581.000000, 188.000000)">
                    <path d="M13.5,0 C6.04441406,0 0,6.04441406 0,13.5 C0,20.9555859 6.04441406,27 13.5,27 C20.9555859,27 27,20.9555859 27,13.5 C27,6.04441406 20.9555859,0 13.5,0 Z M19.9863281,9.87714844 L10.850625,19.0128516 C10.8394817,19.0240447 10.8250846,19.0314279 10.8094922,19.0339453 L10.8195117,19.0439648 L6.90820312,20.0917969 L7.95603516,16.1804883 L7.96605469,16.1905078 C7.96857212,16.1749154 7.97595527,16.1605183 7.98714844,16.149375 L8.90472656,15.2317969 L16.9889062,7.14761719 L17.1228516,7.01367188 C17.1429705,6.99384664 17.1724817,6.98692679 17.1993164,6.99574219 C17.5153907,6.83594837 17.8983691,6.89743768 18.1485352,7.14814453 L19.8539648,8.85357422 C20.1046717,9.1037403 20.166161,9.48671872 20.0063672,9.80279297 C20.01392,9.82937701 20.0062168,9.85795999 19.9863281,9.87714844 Z" id="Shape"></path>
                </g>
            </g>
        </g>
    </g>
</svg>