<?xml version="1.0" encoding="UTF-8"?>
<svg width="22px" height="28px" viewBox="0 0 22 28" version="1.1" xmlns="http://www.w3.org/2000/svg" xmlns:xlink="http://www.w3.org/1999/xlink">
    <title>house</title>
    <g id="Start-here" stroke="none" stroke-width="1" fill="none" fill-rule="evenodd">
        <g id="yonda_account_view_v2" transform="translate(-393.000000, -413.000000)" fill="#000000" fill-rule="nonzero">
            <g id="my-info" transform="translate(265.000000, 399.000000)">
                <g id="house" transform="translate(128.124740, 14.263730)">
                    <path d="M1.8189894e-12,26.1565 L8.019,26.1565 L8.019,22.147 C8.019,21.89752 8.21502,21.7015 8.4645,21.7015 L12.0285,21.7015 C12.27798,21.7015 12.474,21.89752 12.474,22.147 L12.474,26.1565 L20.493,26.1565 L20.493,17.2465 L1.8189894e-12,17.2465 L1.8189894e-12,26.1565 Z" id="Path"></path>
                    <polygon id="Path" points="20.01186 16.3555 10.2465 7 0.48114 16.3555"></polygon>
                    <path d="M4.0095,0.763 C1.79982,0.763 0,2.56282 0,4.7725 C0,6.50104 2.63736,10.27888 4.0095,12.06979 C5.38164,10.27888 8.019,6.50104 8.019,4.7725 C8.019,2.56282 6.21918,0.763 4.0095,0.763 Z M4.0095,7 C2.77992,7 1.782,6.00208 1.782,4.7725 C1.782,3.54292 2.77992,2.545 4.0095,2.545 C5.23908,2.545 6.237,3.54292 6.237,4.7725 C6.237,6.00208 5.23908,7 4.0095,7 Z" id="Shape"></path>
                </g>
            </g>
        </g>
    </g>
</svg>